<svg width="325" height="47" viewBox="0 0 325 47" fill="none" xmlns="http://www.w3.org/2000/svg">
<path d="M21.2285 7.00586C16.5215 7.00586 12.8008 8.57813 10.0664 11.7227C7.35156 14.8477 5.99414 19.1348 5.99414 24.584C5.99414 30.1895 7.30273 34.5254 9.91992 37.5918C12.5566 40.6387 16.3066 42.1621 21.1699 42.1621C24.1582 42.1621 27.5664 41.625 31.3945 40.5508V44.916C28.4258 46.0293 24.7637 46.5859 20.4082 46.5859C14.0996 46.5859 9.22656 44.6719 5.78906 40.8438C2.37109 37.0156 0.662109 31.5762 0.662109 24.5254C0.662109 20.1113 1.48242 16.2441 3.12305 12.9238C4.7832 9.60352 7.16602 7.04492 10.2715 5.24805C13.3965 3.45117 17.0684 2.55273 21.2871 2.55273C25.7793 2.55273 29.7051 3.37305 33.0645 5.01367L30.9551 9.29102C27.7129 7.76758 24.4707 7.00586 21.2285 7.00586ZM67.7227 29.916C67.7227 35.1504 66.4043 39.2422 63.7676 42.1914C61.1309 45.1211 57.4883 46.5859 52.8398 46.5859C49.9688 46.5859 47.4199 45.9121 45.1934 44.5645C42.9668 43.2168 41.248 41.2832 40.0371 38.7637C38.8262 36.2441 38.2207 33.2949 38.2207 29.916C38.2207 24.6816 39.5293 20.6094 42.1465 17.6992C44.7637 14.7695 48.3965 13.3047 53.0449 13.3047C57.5371 13.3047 61.1016 14.7988 63.7383 17.7871C66.3945 20.7754 67.7227 24.8184 67.7227 29.916ZM43.2598 29.916C43.2598 34.0176 44.0801 37.1426 45.7207 39.291C47.3613 41.4395 49.7734 42.5137 52.957 42.5137C56.1406 42.5137 58.5527 41.4492 60.1934 39.3203C61.8535 37.1719 62.6836 34.0371 62.6836 29.916C62.6836 25.834 61.8535 22.7383 60.1934 20.6289C58.5527 18.5 56.1211 17.4355 52.8984 17.4355C49.7148 17.4355 47.3125 18.4805 45.6914 20.5703C44.0703 22.6602 43.2598 25.7754 43.2598 29.916ZM98.25 46V25.2285C98.25 22.6113 97.6543 20.6582 96.4629 19.3691C95.2715 18.0801 93.4062 17.4355 90.8672 17.4355C87.5078 17.4355 85.0469 18.3438 83.4844 20.1602C81.9219 21.9766 81.1406 24.9746 81.1406 29.1543V46H76.2773V13.8906H80.2324L81.0234 18.2852H81.2578C82.2539 16.7031 83.6504 15.4824 85.4473 14.623C87.2441 13.7441 89.2461 13.3047 91.4531 13.3047C95.3203 13.3047 98.2305 14.2422 100.184 16.1172C102.137 17.9727 103.113 20.9512 103.113 25.0527V46H98.25ZM133.846 37.2402C133.846 40.2285 132.732 42.5332 130.506 44.1543C128.279 45.7754 125.154 46.5859 121.131 46.5859C116.873 46.5859 113.553 45.9121 111.17 44.5645V40.0527C112.713 40.834 114.363 41.4492 116.121 41.8984C117.898 42.3477 119.607 42.5723 121.248 42.5723C123.787 42.5723 125.74 42.1719 127.107 41.3711C128.475 40.5508 129.158 39.3105 129.158 37.6504C129.158 36.4004 128.611 35.3359 127.518 34.457C126.443 33.5586 124.334 32.5039 121.189 31.293C118.201 30.1797 116.072 29.2129 114.803 28.3926C113.553 27.5527 112.615 26.6055 111.99 25.5508C111.385 24.4961 111.082 23.2363 111.082 21.7715C111.082 19.1543 112.146 17.0938 114.275 15.5898C116.404 14.0664 119.324 13.3047 123.035 13.3047C126.492 13.3047 129.871 14.0078 133.172 15.4141L131.443 19.3691C128.221 18.041 125.301 17.377 122.684 17.377C120.379 17.377 118.641 17.7383 117.469 18.4609C116.297 19.1836 115.711 20.1797 115.711 21.4492C115.711 22.3086 115.926 23.041 116.355 23.6465C116.805 24.252 117.518 24.8281 118.494 25.375C119.471 25.9219 121.346 26.7129 124.119 27.748C127.928 29.1348 130.496 30.5312 131.824 31.9375C133.172 33.3438 133.846 35.1113 133.846 37.2402ZM146.355 13.8906V34.7207C146.355 37.3379 146.951 39.291 148.143 40.5801C149.334 41.8691 151.199 42.5137 153.738 42.5137C157.098 42.5137 159.549 41.5957 161.092 39.7598C162.654 37.9238 163.436 34.9258 163.436 30.7656V13.8906H168.299V46H164.285L163.582 41.6934H163.318C162.322 43.2754 160.936 44.4863 159.158 45.3262C157.4 46.166 155.389 46.5859 153.123 46.5859C149.217 46.5859 146.287 45.6582 144.334 43.8027C142.4 41.9473 141.434 38.9785 141.434 34.8965V13.8906H146.355ZM183.504 46H178.641V0.414062H183.504V46ZM204.188 42.5723C205.047 42.5723 205.877 42.5137 206.678 42.3965C207.479 42.2598 208.113 42.123 208.582 41.9863V45.707C208.055 45.9609 207.273 46.166 206.238 46.3223C205.223 46.498 204.305 46.5859 203.484 46.5859C197.273 46.5859 194.168 43.3145 194.168 36.7715V17.6699H189.568V15.3262L194.168 13.3047L196.219 6.44922H199.031V13.8906H208.348V17.6699H199.031V36.5664C199.031 38.5 199.49 39.9844 200.408 41.0195C201.326 42.0547 202.586 42.5723 204.188 42.5723ZM244.529 3.16797C250.057 3.16797 254.09 4.35938 256.629 6.74219C259.168 9.10547 260.438 12.3672 260.438 16.5273C260.438 18.4023 260.154 20.1992 259.588 21.918C259.021 23.6172 258.094 25.1309 256.805 26.459C255.535 27.7871 253.836 28.8418 251.707 29.623C249.578 30.3848 246.951 30.7656 243.826 30.7656H239.93V46H230.848V3.16797H244.529ZM244.061 10.6094H239.93V23.3242H242.918C244.617 23.3242 246.092 23.0996 247.342 22.6504C248.592 22.2012 249.559 21.498 250.242 20.541C250.926 19.584 251.268 18.3535 251.268 16.8496C251.268 14.7402 250.682 13.1777 249.51 12.1621C248.338 11.127 246.521 10.6094 244.061 10.6094ZM286.102 12.6309C286.551 12.6309 287.068 12.6602 287.654 12.7188C288.26 12.7578 288.748 12.8164 289.119 12.8945L288.445 21.2734C288.152 21.1758 287.732 21.1074 287.186 21.0684C286.658 21.0098 286.199 20.9805 285.809 20.9805C284.656 20.9805 283.533 21.127 282.439 21.4199C281.365 21.7129 280.398 22.1914 279.539 22.8555C278.68 23.5 277.996 24.3594 277.488 25.4336C277 26.4883 276.756 27.7871 276.756 29.3301V46H267.82V13.2461H274.588L275.906 18.7539H276.346C276.99 17.6406 277.791 16.625 278.748 15.707C279.725 14.7695 280.828 14.0273 282.059 13.4805C283.309 12.9141 284.656 12.6309 286.102 12.6309ZM324.832 29.5645C324.832 32.2988 324.461 34.7207 323.719 36.8301C322.996 38.9395 321.932 40.7266 320.525 42.1914C319.139 43.6367 317.459 44.7305 315.486 45.4727C313.533 46.2148 311.326 46.5859 308.865 46.5859C306.561 46.5859 304.441 46.2148 302.508 45.4727C300.594 44.7305 298.924 43.6367 297.498 42.1914C296.092 40.7266 294.998 38.9395 294.217 36.8301C293.455 34.7207 293.074 32.2988 293.074 29.5645C293.074 25.9316 293.719 22.8555 295.008 20.3359C296.297 17.8164 298.133 15.9023 300.516 14.5938C302.898 13.2852 305.74 12.6309 309.041 12.6309C312.107 12.6309 314.822 13.2852 317.186 14.5938C319.568 15.9023 321.434 17.8164 322.781 20.3359C324.148 22.8555 324.832 25.9316 324.832 29.5645ZM302.186 29.5645C302.186 31.7129 302.42 33.5195 302.889 34.9844C303.357 36.4492 304.09 37.5527 305.086 38.2949C306.082 39.0371 307.381 39.4082 308.982 39.4082C310.564 39.4082 311.844 39.0371 312.82 38.2949C313.816 37.5527 314.539 36.4492 314.988 34.9844C315.457 33.5195 315.691 31.7129 315.691 29.5645C315.691 27.3965 315.457 25.5996 314.988 24.1738C314.539 22.7285 313.816 21.6445 312.82 20.9219C311.824 20.1992 310.525 19.8379 308.924 19.8379C306.561 19.8379 304.842 20.6484 303.768 22.2695C302.713 23.8906 302.186 26.3223 302.186 29.5645Z" fill="#58B3E0"/>
</svg>
